<svg xmlns="http://www.w3.org/2000/svg" viewBox="0 0 256 256">
  <rect width="256" height="256" rx="54" fill="#fbfaff" />
  <g opacity="0.14">
    <rect x="24" y="24" width="52" height="52" fill="#7c3aed" />
    <rect x="128" y="24" width="52" height="52" fill="#7c3aed" />
    <rect x="76" y="76" width="52" height="52" fill="#7c3aed" />
    <rect x="180" y="76" width="52" height="52" fill="#7c3aed" />
    <rect x="24" y="128" width="52" height="52" fill="#7c3aed" />
    <rect x="128" y="128" width="52" height="52" fill="#7c3aed" />
    <rect x="76" y="180" width="52" height="52" fill="#7c3aed" />
    <rect x="180" y="180" width="52" height="52" fill="#7c3aed" />
  </g>
  <circle cx="128" cy="128" r="103" fill="#ffffff" opacity="0.82" />
  <g
    fill="none"
    stroke="#1f1f1d"
    stroke-linecap="round"
    stroke-linejoin="round"
    stroke-width="12"
  >
    <path d="M32 150h43" />
    <path d="M181 150h43" />
    <circle cx="128" cy="55" r="24" />
    <path d="M94 90h68v22H94z" />
    <path d="M98 119c-1 31-12 57-34 77" />
    <path d="M158 119c1 31 12 57 34 77" />
    <path d="M128 119v61" />
    <path d="M88 181h80" />
    <path d="M76 201h104v25H76z" />
    <path d="M66 236h124" />
    <path d="M78 94c-20-6-39 7-43 28-3 19 9 36 28 41" />
    <path d="M178 94c20-6 39 7 43 28 3 19-9 36-28 41" />
    <path d="M61 132v18h18" />
    <path d="M195 132v18h-18" />
  </g>
  <path
    d="M67 171h122"
    fill="none"
    stroke="#7c3aed"
    stroke-linecap="round"
    stroke-width="10"
  />
</svg>
